<?xml version="1.0" encoding="utf-8"?>
<!-- Generator: Adobe Illustrator 15.0.0, SVG Export Plug-In . SVG Version: 6.00 Build 0)  -->
<svg version="1.2" baseProfile="tiny" id="Ebene_1" xmlns="http://www.w3.org/2000/svg" xmlns:xlink="http://www.w3.org/1999/xlink"
	 x="0px" y="0px" width="494.445px" height="43.492px" viewBox="0 0 494.445 43.492" xml:space="preserve">
<g>
	<path d="M54.097,11.86c0.187,0.187,0.427,0.28,0.721,0.28c0.213,0,0.387-0.053,0.521-0.16c0.934-0.614,1.942-1.068,3.023-1.361
		s2.182-0.44,3.303-0.44c1.361,0,2.709,0.233,4.044,0.701s2.522,1.174,3.563,2.122s1.889,2.142,2.542,3.583s0.981,3.136,0.981,5.085
		v9.569c0,0.454-0.167,0.794-0.5,1.021s-0.714,0.34-1.141,0.34s-0.808-0.113-1.141-0.34s-0.5-0.567-0.5-1.021V21.67
		c0-1.415-0.22-2.643-0.661-3.684s-1.028-1.895-1.762-2.563s-1.575-1.161-2.522-1.481s-1.915-0.48-2.903-0.48
		c-1.014,0-1.989,0.16-2.923,0.48s-1.769,0.814-2.502,1.481s-1.321,1.521-1.762,2.563s-0.661,2.269-0.661,3.684v9.569
		c0,0.454-0.167,0.794-0.5,1.021s-0.714,0.34-1.141,0.34s-0.808-0.113-1.141-0.34s-0.5-0.567-0.5-1.021V1.61
		c0-0.454,0.173-0.794,0.521-1.021s0.721-0.34,1.121-0.34c0.427,0,0.808,0.113,1.141,0.34s0.5,0.567,0.5,1.021v9.569
		C53.816,11.447,53.91,11.673,54.097,11.86z"/>
	<path d="M99.517,32.2c-0.347,0.267-0.748,0.4-1.201,0.4c-0.293,0-0.574-0.073-0.841-0.22s-0.467-0.367-0.601-0.661
		c-0.187-0.374-0.467-0.561-0.841-0.561c-0.187,0-0.374,0.067-0.561,0.2c-0.961,0.667-2.009,1.168-3.143,1.501s-2.275,0.5-3.423,0.5
		c-1.361,0-2.709-0.233-4.044-0.701s-2.522-1.181-3.563-2.142s-1.889-2.162-2.542-3.604s-0.981-3.136-0.981-5.085
		s0.327-3.644,0.981-5.085s1.501-2.636,2.542-3.583s2.229-1.655,3.563-2.122s2.683-0.701,4.044-0.701c1.148,0,2.289,0.167,3.423,0.5
		s2.182,0.834,3.143,1.501c0.187,0.133,0.374,0.2,0.561,0.2s0.354-0.06,0.5-0.18s0.26-0.26,0.34-0.42
		c0.133-0.293,0.333-0.507,0.601-0.641s0.547-0.2,0.841-0.2c0.454,0,0.854,0.133,1.201,0.4s0.521,0.654,0.521,1.161v18.378
		C100.038,31.546,99.864,31.933,99.517,32.2z M85.984,14.103c-0.934,0.32-1.769,0.814-2.502,1.481s-1.321,1.521-1.762,2.563
		s-0.661,2.269-0.661,3.684c0,1.441,0.22,2.676,0.661,3.704s1.028,1.882,1.762,2.563s1.575,1.181,2.522,1.501s1.915,0.48,2.903,0.48
		s1.955-0.16,2.903-0.48s1.789-0.821,2.522-1.501s1.321-1.535,1.762-2.563s0.661-2.262,0.661-3.704c0-1.415-0.22-2.643-0.661-3.684
		s-1.028-1.895-1.762-2.563s-1.575-1.161-2.522-1.481s-1.915-0.48-2.903-0.48C87.893,13.622,86.918,13.782,85.984,14.103z"/>
	<path d="M106.32,17.306c0.534-1.415,1.288-2.629,2.262-3.644s2.149-1.815,3.523-2.402c1.375-0.587,2.903-0.881,4.585-0.881
		c0.347,0,0.734,0.02,1.161,0.06s0.861,0.1,1.301,0.18c0.441,0.08,0.868,0.187,1.281,0.32c0.414,0.133,0.781,0.28,1.102,0.44
		c0.347,0.187,0.574,0.447,0.681,0.781s0.12,0.661,0.04,0.981s-0.24,0.601-0.48,0.841s-0.561,0.36-0.961,0.36
		c-0.48,0-1.055-0.113-1.722-0.34s-1.468-0.34-2.402-0.34c-1.228,0-2.322,0.207-3.283,0.621s-1.782,0.981-2.462,1.702
		c-0.681,0.721-1.201,1.582-1.562,2.583s-0.541,2.102-0.541,3.303s0.173,2.302,0.521,3.303s0.861,1.862,1.542,2.583
		c0.681,0.721,1.508,1.288,2.482,1.702c0.975,0.414,2.076,0.621,3.304,0.621c0.935,0,1.735-0.113,2.402-0.34s1.241-0.34,1.722-0.34
		c0.4,0,0.721,0.12,0.961,0.36s0.4,0.521,0.48,0.841s0.066,0.647-0.04,0.981s-0.334,0.594-0.681,0.781
		c-0.32,0.187-0.688,0.347-1.102,0.48c-0.413,0.133-0.84,0.24-1.281,0.32c-0.439,0.08-0.874,0.14-1.301,0.18s-0.814,0.06-1.161,0.06
		c-1.682,0-3.21-0.293-4.585-0.881c-1.374-0.587-2.549-1.395-3.523-2.422s-1.729-2.242-2.262-3.644s-0.801-2.93-0.801-4.584
		C105.52,20.242,105.787,18.72,106.32,17.306z"/>
	<path d="M144.342,19.328c0.974,0.601,1.828,1.361,2.563,2.282c0.733,0.921,1.314,2.002,1.741,3.243s0.641,2.649,0.641,4.224v2.122
		c0,0.454-0.167,0.801-0.501,1.041c-0.333,0.24-0.714,0.36-1.141,0.36s-0.808-0.12-1.141-0.36c-0.334-0.24-0.501-0.587-0.501-1.041
		v-2.122c0-1.415-0.22-2.643-0.661-3.684c-0.439-1.041-1.027-1.895-1.762-2.563c-0.733-0.667-1.574-1.161-2.521-1.481
		c-0.948-0.32-1.916-0.48-2.903-0.48c-1.015,0-1.988,0.16-2.923,0.48s-1.769,0.814-2.502,1.481
		c-0.734,0.667-1.322,1.521-1.762,2.563c-0.441,1.041-0.661,2.269-0.661,3.684v2.122c0,0.454-0.167,0.801-0.501,1.041
		c-0.333,0.24-0.714,0.36-1.141,0.36s-0.808-0.12-1.141-0.36c-0.334-0.24-0.501-0.587-0.501-1.041V1.65
		c0-0.454,0.16-0.801,0.48-1.041s0.707-0.36,1.161-0.36s0.841,0.12,1.161,0.36s0.48,0.587,0.48,1.041v16.896
		c0,0.293,0.094,0.534,0.28,0.721s0.427,0.28,0.721,0.28c0.214,0,0.387-0.053,0.521-0.16c1.015-0.667,2.136-1.148,3.363-1.441
		c0.4-0.107,0.721-0.333,0.961-0.681l4.484-6.406c0.267-0.374,0.62-0.567,1.062-0.581c0.439-0.013,0.847,0.113,1.221,0.38
		s0.601,0.587,0.681,0.961s-0.014,0.748-0.28,1.121l-2.563,3.724c-0.134,0.187-0.2,0.374-0.2,0.561c0,0.507,0.24,0.828,0.721,0.961
		C142.346,18.28,143.367,18.727,144.342,19.328z"/>
	<path d="M172.093,12.381c0.134-0.133,0.2-0.307,0.2-0.521V1.61c0-0.454,0.167-0.788,0.5-1.001c0.334-0.213,0.715-0.32,1.142-0.32
		s0.808,0.107,1.142,0.32c0.333,0.213,0.5,0.547,0.5,1.001v29.509c0,0.454-0.16,0.821-0.48,1.101s-0.707,0.42-1.161,0.42
		c-0.694,0-1.175-0.253-1.441-0.761c-0.106-0.16-0.233-0.313-0.38-0.46c-0.147-0.147-0.314-0.22-0.501-0.22
		c-0.214,0-0.414,0.067-0.601,0.2c-0.961,0.694-2.002,1.201-3.123,1.521s-2.269,0.48-3.443,0.48c-1.361,0-2.709-0.233-4.044-0.701
		s-2.529-1.174-3.583-2.122c-1.055-0.948-1.902-2.142-2.543-3.583s-0.961-3.136-0.961-5.085s0.327-3.644,0.98-5.085
		c0.654-1.441,1.502-2.643,2.543-3.604s2.229-1.675,3.563-2.142s2.683-0.701,4.044-0.701c1.175,0,2.322,0.167,3.443,0.5
		s2.162,0.834,3.123,1.501c0.187,0.133,0.374,0.2,0.561,0.2C171.786,12.581,171.959,12.514,172.093,12.381z M167.348,29.638
		c0.948-0.32,1.789-0.814,2.523-1.481c0.733-0.667,1.32-1.521,1.762-2.563c0.439-1.041,0.66-2.269,0.66-3.684
		c0-1.441-0.221-2.676-0.66-3.704c-0.441-1.028-1.028-1.882-1.762-2.563c-0.734-0.681-1.575-1.181-2.523-1.501
		c-0.947-0.32-1.915-0.48-2.902-0.48s-1.955,0.16-2.902,0.48c-0.948,0.32-1.789,0.821-2.523,1.501
		c-0.733,0.681-1.32,1.535-1.762,2.563c-0.439,1.028-0.66,2.262-0.66,3.704c0,1.415,0.221,2.643,0.66,3.684
		c0.441,1.041,1.028,1.895,1.762,2.563c0.734,0.667,1.568,1.161,2.503,1.481s1.908,0.48,2.923,0.48
		C165.433,30.118,166.4,29.958,167.348,29.638z"/>
	<path d="M202.799,32.2c-0.347,0.267-0.747,0.4-1.201,0.4c-0.294,0-0.574-0.073-0.841-0.22s-0.467-0.367-0.601-0.661
		c-0.187-0.374-0.467-0.561-0.841-0.561c-0.187,0-0.374,0.067-0.561,0.2c-0.961,0.667-2.009,1.168-3.144,1.501
		c-1.134,0.333-2.275,0.5-3.423,0.5c-1.361,0-2.709-0.233-4.044-0.701s-2.522-1.181-3.563-2.142s-1.889-2.162-2.542-3.604
		c-0.654-1.441-0.981-3.136-0.981-5.085s0.327-3.644,0.981-5.085c0.653-1.441,1.501-2.636,2.542-3.583s2.229-1.655,3.563-2.122
		s2.683-0.701,4.044-0.701c1.147,0,2.289,0.167,3.423,0.5c1.135,0.333,2.183,0.834,3.144,1.501c0.187,0.133,0.374,0.2,0.561,0.2
		s0.354-0.06,0.501-0.18c0.146-0.12,0.26-0.26,0.34-0.42c0.134-0.293,0.334-0.507,0.601-0.641s0.547-0.2,0.841-0.2
		c0.454,0,0.854,0.133,1.201,0.4s0.521,0.654,0.521,1.161v18.378C203.319,31.546,203.146,31.933,202.799,32.2z M189.266,14.103
		c-0.935,0.32-1.769,0.814-2.502,1.481c-0.734,0.667-1.322,1.521-1.762,2.563c-0.441,1.041-0.661,2.269-0.661,3.684
		c0,1.441,0.22,2.676,0.661,3.704c0.439,1.028,1.027,1.882,1.762,2.563c0.733,0.681,1.574,1.181,2.521,1.501
		c0.948,0.32,1.916,0.48,2.903,0.48s1.955-0.16,2.903-0.48c0.947-0.32,1.788-0.821,2.521-1.501c0.734-0.681,1.322-1.535,1.762-2.563
		c0.441-1.028,0.661-2.262,0.661-3.704c0-1.415-0.22-2.643-0.661-3.684c-0.439-1.041-1.027-1.895-1.762-2.563
		c-0.733-0.667-1.574-1.161-2.521-1.481c-0.948-0.32-1.916-0.48-2.903-0.48C191.174,13.622,190.2,13.782,189.266,14.103z"/>
	<path d="M224.341,11.24c0.427-0.147,0.827-0.14,1.201,0.02c0.48,0.213,0.794,0.514,0.94,0.901c0.147,0.387,0.154,0.741,0.021,1.061
		l-9.77,23.063c-0.534,1.281-1.181,2.375-1.942,3.283c-0.76,0.908-1.581,1.648-2.462,2.222s-1.809,1.001-2.782,1.281
		c-0.975,0.28-1.956,0.42-2.943,0.42c-0.801,0-1.588-0.087-2.362-0.26s-1.521-0.407-2.242-0.701c-0.32-0.133-0.554-0.394-0.7-0.781
		c-0.147-0.387-0.141-0.808,0.02-1.261c0.187-0.454,0.467-0.768,0.841-0.941s0.747-0.193,1.121-0.06
		c0.534,0.213,1.081,0.387,1.642,0.521s1.135,0.2,1.722,0.2c1.388,0,2.716-0.4,3.983-1.201c1.269-0.801,2.303-2.135,3.104-4.004
		l1.441-3.363c0.16-0.427,0.16-0.854,0-1.281l-7.287-17.057c-0.187-0.454-0.18-0.854,0.02-1.201
		c0.201-0.347,0.515-0.614,0.941-0.801s0.834-0.227,1.221-0.12c0.388,0.107,0.675,0.387,0.861,0.841l6.286,14.774L223.5,11.94
		C223.634,11.62,223.914,11.387,224.341,11.24z"/>
	<path fill="#6AB9EC" d="M249.966,12.541c0.214,0,0.414-0.067,0.601-0.2c0.961-0.667,2.002-1.168,3.123-1.501s2.269-0.5,3.443-0.5
		c1.361,0,2.709,0.233,4.044,0.701s2.529,1.174,3.583,2.122c1.055,0.948,1.902,2.142,2.543,3.583s0.961,3.136,0.961,5.085v9.369
		c0,0.454-0.167,0.801-0.5,1.041c-0.334,0.24-0.715,0.36-1.142,0.36s-0.808-0.12-1.142-0.36c-0.333-0.24-0.5-0.587-0.5-1.041V21.87
		c0-1.441-0.221-2.676-0.66-3.704c-0.441-1.028-1.028-1.882-1.762-2.563c-0.734-0.681-1.575-1.181-2.523-1.501
		c-0.947-0.32-1.915-0.48-2.902-0.48s-1.948,0.16-2.883,0.48s-1.769,0.814-2.502,1.481c-0.734,0.667-1.328,1.515-1.782,2.542
		s-0.681,2.249-0.681,3.664v9.409c0,0.454-0.167,0.801-0.5,1.041c-0.334,0.24-0.715,0.36-1.142,0.36s-0.808-0.12-1.142-0.36
		c-0.333-0.24-0.5-0.587-0.5-1.041V12.741c0-0.48,0.167-0.874,0.5-1.181c0.334-0.307,0.715-0.46,1.142-0.46
		c0.747,0,1.255,0.293,1.521,0.881C249.352,12.354,249.619,12.541,249.966,12.541z"/>
	<path fill="#6AB9EC" d="M274.29,4.653c0.267-0.32,0.681-0.48,1.241-0.48s0.975,0.16,1.241,0.48s0.4,0.681,0.4,1.081
		s-0.134,0.761-0.4,1.081s-0.681,0.48-1.241,0.48s-0.975-0.16-1.241-0.48s-0.4-0.681-0.4-1.081S274.023,4.974,274.29,4.653z
		 M274.43,11.44c0.334-0.253,0.715-0.38,1.142-0.38s0.808,0.127,1.142,0.38c0.333,0.253,0.5,0.607,0.5,1.061v10.65
		c0,1.361,0.354,2.663,1.061,3.904c0.708,1.241,1.636,2.249,2.783,3.023c0.48,0.347,0.721,0.761,0.721,1.241
		s-0.187,0.881-0.561,1.201s-0.787,0.48-1.241,0.48c-0.32,0-0.681-0.127-1.081-0.38s-0.794-0.574-1.182-0.961
		c-0.387-0.387-0.747-0.788-1.08-1.201c-0.334-0.414-0.607-0.781-0.821-1.101c-0.561-0.881-1.008-1.835-1.341-2.863
		c-0.334-1.028-0.515-2.075-0.541-3.143V12.501C273.93,12.047,274.097,11.693,274.43,11.44z"/>
	<path fill="#6AB9EC" d="M306.061,23.031c-0.253,0.32-0.594,0.521-1.021,0.601l-16.656,2.643c0.694,1.361,1.668,2.362,2.923,3.003
		s2.589,0.961,4.004,0.961c1.228,0,2.389-0.24,3.483-0.721c0.054-0.027,0.153-0.067,0.3-0.12c0.147-0.053,0.32-0.06,0.521-0.02
		c0.199,0.04,0.406,0.133,0.62,0.28s0.4,0.407,0.561,0.781c0.187,0.374,0.233,0.761,0.14,1.161c-0.093,0.4-0.366,0.708-0.82,0.921
		c-1.495,0.667-3.097,1.001-4.805,1.001c-1.361,0-2.709-0.233-4.044-0.701s-2.522-1.181-3.563-2.142s-1.889-2.162-2.543-3.604
		c-0.653-1.441-0.98-3.136-0.98-5.085s0.32-3.644,0.961-5.085s1.488-2.636,2.543-3.583c1.054-0.948,2.248-1.655,3.583-2.122
		s2.683-0.701,4.044-0.701s2.703,0.233,4.023,0.701c1.322,0.467,2.51,1.174,3.564,2.122c1.054,0.948,1.908,2.135,2.563,3.563
		c0.653,1.428,0.98,3.116,0.98,5.065C306.441,22.351,306.314,22.711,306.061,23.031z M302.598,20.669
		c0.16-0.027,0.273-0.107,0.34-0.24c0.067-0.133,0.087-0.267,0.061-0.4c-0.214-1.068-0.567-1.995-1.061-2.783
		c-0.494-0.788-1.088-1.441-1.782-1.962s-1.462-0.901-2.302-1.141c-0.842-0.24-1.688-0.36-2.543-0.36
		c-1.015,0-1.988,0.16-2.923,0.48s-1.769,0.814-2.503,1.481c-0.733,0.667-1.32,1.521-1.762,2.563
		c-0.439,1.041-0.66,2.269-0.66,3.684v0.561c0.054,0.347,0.24,0.494,0.561,0.44L302.598,20.669z"/>
	<path fill="#6AB9EC" d="M329.375,12.381c0.134-0.133,0.2-0.307,0.2-0.521V1.61c0-0.454,0.167-0.788,0.501-1.001
		c0.333-0.213,0.714-0.32,1.141-0.32s0.808,0.107,1.141,0.32c0.334,0.213,0.501,0.547,0.501,1.001v29.509
		c0,0.454-0.16,0.821-0.48,1.101s-0.707,0.42-1.161,0.42c-0.694,0-1.175-0.253-1.441-0.761c-0.106-0.16-0.233-0.313-0.381-0.46
		c-0.146-0.147-0.313-0.22-0.5-0.22c-0.214,0-0.414,0.067-0.601,0.2c-0.961,0.694-2.002,1.201-3.123,1.521s-2.269,0.48-3.443,0.48
		c-1.361,0-2.709-0.233-4.044-0.701s-2.529-1.174-3.584-2.122c-1.054-0.948-1.901-2.142-2.542-3.583s-0.961-3.136-0.961-5.085
		s0.327-3.644,0.981-5.085c0.653-1.441,1.501-2.643,2.542-3.604s2.229-1.675,3.563-2.142s2.683-0.701,4.044-0.701
		c1.175,0,2.322,0.167,3.443,0.5s2.162,0.834,3.123,1.501c0.187,0.133,0.374,0.2,0.561,0.2
		C329.068,12.581,329.241,12.514,329.375,12.381z M324.631,29.638c0.947-0.32,1.788-0.814,2.521-1.481
		c0.734-0.667,1.322-1.521,1.762-2.563c0.441-1.041,0.661-2.269,0.661-3.684c0-1.441-0.22-2.676-0.661-3.704
		c-0.439-1.028-1.027-1.882-1.762-2.563c-0.733-0.681-1.574-1.181-2.521-1.501c-0.948-0.32-1.916-0.48-2.903-0.48
		s-1.955,0.16-2.903,0.48c-0.947,0.32-1.788,0.821-2.521,1.501c-0.734,0.681-1.322,1.535-1.762,2.563
		c-0.441,1.028-0.661,2.262-0.661,3.704c0,1.415,0.22,2.643,0.661,3.684c0.439,1.041,1.027,1.895,1.762,2.563
		c0.733,0.667,1.567,1.161,2.502,1.481s1.908,0.48,2.923,0.48C322.715,30.118,323.683,29.958,324.631,29.638z"/>
	<path fill="#6AB9EC" d="M360.299,23.031c-0.254,0.32-0.595,0.521-1.021,0.601l-16.656,2.643c0.694,1.361,1.668,2.362,2.923,3.003
		s2.589,0.961,4.004,0.961c1.228,0,2.389-0.24,3.483-0.721c0.054-0.027,0.153-0.067,0.301-0.12c0.146-0.053,0.32-0.06,0.52-0.02
		c0.201,0.04,0.407,0.133,0.621,0.28s0.4,0.407,0.561,0.781c0.187,0.374,0.233,0.761,0.141,1.161
		c-0.094,0.4-0.367,0.708-0.821,0.921c-1.495,0.667-3.097,1.001-4.805,1.001c-1.361,0-2.709-0.233-4.044-0.701
		s-2.522-1.181-3.563-2.142s-1.889-2.162-2.542-3.604c-0.654-1.441-0.981-3.136-0.981-5.085s0.32-3.644,0.961-5.085
		s1.488-2.636,2.542-3.583c1.055-0.948,2.249-1.655,3.584-2.122s2.683-0.701,4.044-0.701s2.702,0.233,4.024,0.701
		c1.32,0.467,2.509,1.174,3.563,2.122c1.055,0.948,1.909,2.135,2.563,3.563c0.654,1.428,0.981,3.116,0.981,5.065
		C360.679,22.351,360.552,22.711,360.299,23.031z M356.835,20.669c0.16-0.027,0.273-0.107,0.341-0.24
		c0.066-0.133,0.086-0.267,0.06-0.4c-0.214-1.068-0.567-1.995-1.062-2.783c-0.493-0.788-1.087-1.441-1.781-1.962
		s-1.461-0.901-2.303-1.141c-0.84-0.24-1.688-0.36-2.542-0.36c-1.015,0-1.988,0.16-2.923,0.48s-1.769,0.814-2.502,1.481
		c-0.734,0.667-1.322,1.521-1.762,2.563c-0.441,1.041-0.661,2.269-0.661,3.684v0.561c0.054,0.347,0.24,0.494,0.561,0.44
		L356.835,20.669z"/>
	<path fill="#6AB9EC" d="M368.406,31.199c0,0.48-0.174,0.834-0.521,1.061s-0.721,0.34-1.121,0.34s-0.774-0.113-1.121-0.34
		s-0.521-0.581-0.521-1.061V21.87c0-1.655,0.267-3.183,0.801-4.584s1.288-2.616,2.262-3.644c0.975-1.028,2.143-1.835,3.504-2.422
		s2.883-0.881,4.564-0.881c0.347,0,0.74,0.02,1.182,0.06c0.439,0.04,0.881,0.1,1.32,0.18c0.441,0.08,0.861,0.187,1.262,0.32
		s0.761,0.293,1.081,0.48c0.347,0.187,0.581,0.447,0.7,0.781c0.121,0.333,0.141,0.661,0.061,0.981s-0.247,0.601-0.5,0.841
		c-0.254,0.24-0.581,0.36-0.981,0.36c-0.454,0-1.021-0.12-1.702-0.36c-0.68-0.24-1.487-0.36-2.422-0.36
		c-1.228,0-2.322,0.207-3.283,0.621s-1.781,0.988-2.463,1.722c-0.68,0.734-1.201,1.602-1.561,2.603
		c-0.361,1.001-0.541,2.102-0.541,3.303V31.199z"/>
	<path fill="#6AB9EC" d="M387.856,31.199c0,0.48-0.174,0.834-0.521,1.061s-0.721,0.34-1.121,0.34s-0.774-0.113-1.121-0.34
		s-0.521-0.581-0.521-1.061V21.87c0-1.655,0.267-3.183,0.801-4.584s1.288-2.616,2.263-3.644c0.974-1.028,2.142-1.835,3.503-2.422
		s2.883-0.881,4.564-0.881c0.347,0,0.741,0.02,1.181,0.06c0.441,0.04,0.881,0.1,1.322,0.18c0.439,0.08,0.86,0.187,1.261,0.32
		s0.761,0.293,1.081,0.48c0.347,0.187,0.58,0.447,0.701,0.781c0.119,0.333,0.14,0.661,0.06,0.981s-0.247,0.601-0.501,0.841
		c-0.253,0.24-0.58,0.36-0.98,0.36c-0.454,0-1.021-0.12-1.701-0.36c-0.682-0.24-1.488-0.36-2.423-0.36
		c-1.228,0-2.322,0.207-3.283,0.621s-1.782,0.988-2.462,1.722c-0.682,0.734-1.201,1.602-1.563,2.603
		c-0.359,1.001-0.54,2.102-0.54,3.303V31.199z"/>
	<path fill="#6AB9EC" d="M409.241,11.86c0.187,0.187,0.427,0.28,0.721,0.28c0.214,0,0.387-0.053,0.521-0.16
		c0.935-0.614,1.941-1.068,3.023-1.361c1.08-0.293,2.182-0.44,3.303-0.44c1.361,0,2.709,0.233,4.044,0.701s2.522,1.174,3.563,2.122
		s1.889,2.142,2.543,3.583c0.653,1.441,0.98,3.136,0.98,5.085v9.569c0,0.454-0.167,0.794-0.5,1.021
		c-0.334,0.227-0.715,0.34-1.142,0.34s-0.808-0.113-1.142-0.34c-0.333-0.227-0.5-0.567-0.5-1.021V21.67
		c0-1.415-0.221-2.643-0.66-3.684c-0.441-1.041-1.028-1.895-1.762-2.563c-0.734-0.667-1.575-1.161-2.523-1.481
		c-0.947-0.32-1.915-0.48-2.902-0.48c-1.015,0-1.988,0.16-2.923,0.48s-1.769,0.814-2.503,1.481c-0.733,0.667-1.32,1.521-1.762,2.563
		c-0.439,1.041-0.66,2.269-0.66,3.684v9.569c0,0.454-0.167,0.794-0.5,1.021c-0.334,0.227-0.715,0.34-1.142,0.34
		s-0.808-0.113-1.142-0.34c-0.333-0.227-0.5-0.567-0.5-1.021V1.61c0-0.454,0.174-0.794,0.521-1.021s0.721-0.34,1.121-0.34
		c0.427,0,0.808,0.113,1.142,0.34c0.333,0.227,0.5,0.567,0.5,1.021v9.569C408.961,11.447,409.055,11.673,409.241,11.86z"/>
	<path fill="#6AB9EC" d="M454.879,23.031c-0.254,0.32-0.595,0.521-1.021,0.601l-16.656,2.643c0.694,1.361,1.668,2.362,2.923,3.003
		s2.589,0.961,4.004,0.961c1.228,0,2.389-0.24,3.483-0.721c0.054-0.027,0.153-0.067,0.301-0.12c0.146-0.053,0.32-0.06,0.52-0.02
		c0.201,0.04,0.407,0.133,0.621,0.28s0.4,0.407,0.561,0.781c0.187,0.374,0.233,0.761,0.141,1.161
		c-0.094,0.4-0.367,0.708-0.821,0.921c-1.495,0.667-3.097,1.001-4.805,1.001c-1.361,0-2.709-0.233-4.044-0.701
		s-2.522-1.181-3.563-2.142s-1.889-2.162-2.542-3.604c-0.654-1.441-0.981-3.136-0.981-5.085s0.32-3.644,0.961-5.085
		s1.488-2.636,2.542-3.583c1.055-0.948,2.249-1.655,3.584-2.122s2.683-0.701,4.044-0.701s2.702,0.233,4.024,0.701
		c1.32,0.467,2.509,1.174,3.563,2.122c1.055,0.948,1.909,2.135,2.563,3.563c0.654,1.428,0.981,3.116,0.981,5.065
		C455.259,22.351,455.132,22.711,454.879,23.031z M451.415,20.669c0.16-0.027,0.273-0.107,0.341-0.24
		c0.066-0.133,0.086-0.267,0.06-0.4c-0.214-1.068-0.567-1.995-1.062-2.783c-0.493-0.788-1.087-1.441-1.781-1.962
		s-1.461-0.901-2.303-1.141c-0.84-0.24-1.688-0.36-2.542-0.36c-1.015,0-1.988,0.16-2.923,0.48s-1.769,0.814-2.502,1.481
		c-0.734,0.667-1.322,1.521-1.762,2.563c-0.441,1.041-0.661,2.269-0.661,3.684v0.561c0.054,0.347,0.24,0.494,0.561,0.44
		L451.415,20.669z"/>
	<path fill="#6AB9EC" d="M460.1,4.653c0.267-0.32,0.681-0.48,1.241-0.48s0.975,0.16,1.241,0.48s0.4,0.681,0.4,1.081
		s-0.134,0.761-0.4,1.081s-0.681,0.48-1.241,0.48s-0.975-0.16-1.241-0.48s-0.4-0.681-0.4-1.081S459.833,4.974,460.1,4.653z
		 M460.24,11.44c0.333-0.253,0.714-0.38,1.141-0.38s0.808,0.127,1.141,0.38c0.334,0.253,0.501,0.607,0.501,1.061v10.65
		c0,1.361,0.354,2.663,1.062,3.904c0.707,1.241,1.635,2.249,2.782,3.023c0.48,0.347,0.721,0.761,0.721,1.241
		s-0.187,0.881-0.561,1.201s-0.787,0.48-1.241,0.48c-0.32,0-0.681-0.127-1.081-0.38s-0.794-0.574-1.181-0.961
		c-0.388-0.387-0.748-0.788-1.082-1.201c-0.333-0.414-0.606-0.781-0.82-1.101c-0.561-0.881-1.008-1.835-1.342-2.863
		c-0.333-1.028-0.514-2.075-0.54-3.143V12.501C459.739,12.047,459.906,11.693,460.24,11.44z"/>
	<path fill="#6AB9EC" d="M475.91,12.541c0.214,0,0.414-0.067,0.601-0.2c0.961-0.667,2.002-1.168,3.123-1.501s2.269-0.5,3.443-0.5
		c1.361,0,2.709,0.233,4.044,0.701s2.529,1.174,3.584,2.122c1.054,0.948,1.901,2.142,2.542,3.583s0.961,3.136,0.961,5.085v9.369
		c0,0.454-0.167,0.801-0.501,1.041c-0.333,0.24-0.714,0.36-1.141,0.36s-0.808-0.12-1.141-0.36c-0.334-0.24-0.501-0.587-0.501-1.041
		V21.87c0-1.441-0.22-2.676-0.661-3.704c-0.439-1.028-1.027-1.882-1.762-2.563c-0.733-0.681-1.574-1.181-2.521-1.501
		c-0.948-0.32-1.916-0.48-2.903-0.48s-1.948,0.16-2.883,0.48s-1.769,0.814-2.503,1.481c-0.733,0.667-1.327,1.515-1.781,2.542
		s-0.681,2.249-0.681,3.664v9.409c0,0.454-0.167,0.801-0.501,1.041c-0.333,0.24-0.714,0.36-1.141,0.36s-0.808-0.12-1.141-0.36
		c-0.334-0.24-0.501-0.587-0.501-1.041V12.741c0-0.48,0.167-0.874,0.501-1.181c0.333-0.307,0.714-0.46,1.141-0.46
		c0.747,0,1.255,0.293,1.521,0.881C475.296,12.354,475.563,12.541,475.91,12.541z"/>
</g>
<g>
	<path fill="#B5CE87" d="M31.562,32.854H1.084C0.486,32.854,0,32.368,0,31.77V1.292c0-0.599,0.486-1.084,1.084-1.084h30.477
		c0.599,0,1.084,0.486,1.084,1.084V31.77C32.646,32.368,32.16,32.854,31.562,32.854z M2.169,30.685h28.308V2.377H2.169V30.685z"/>
	<path fill="#6AB9EC" d="M20.838,8.038c-0.176-0.194-0.431-0.31-0.762-0.346c-0.332-0.036-0.548-0.114-0.649-0.232
		c-0.101-0.119-0.151-0.333-0.151-0.643V3.119c0-0.49-0.105-0.922-0.314-1.297c-0.331-0.576-0.721-0.993-1.167-1.249
		S16.884,0.19,16.4,0.19c-0.339,0-0.618,0.108-0.837,0.325c-0.22,0.216-0.33,0.483-0.33,0.8c0,0.295,0.097,0.547,0.292,0.756
		c0.195,0.209,0.443,0.328,0.746,0.357s0.51,0.106,0.621,0.232c0.112,0.126,0.168,0.337,0.168,0.632v3.524
		c0,0.483,0.049,0.863,0.146,1.14s0.271,0.563,0.524,0.859c-0.267,0.302-0.445,0.591-0.536,0.865
		c-0.09,0.274-0.135,0.721-0.135,1.341v3.523c0,0.296-0.065,0.519-0.194,0.67c-0.08,0.101-0.274,0.166-0.584,0.194
		c-0.053,0.005-0.341-0.015-0.455-0.015c-0.757,0-1.423,0.29-2,0.87c-0.577,0.581-0.865,1.267-0.865,2.06v3.697
		c0,0.302-0.062,0.526-0.184,0.67c-0.072,0.094-0.276,0.161-0.61,0.2c-0.335,0.04-0.591,0.157-0.768,0.351
		c-0.177,0.195-0.265,0.454-0.265,0.779c0,0.317,0.088,0.573,0.265,0.767s0.43,0.312,0.762,0.351
		c0.332,0.04,0.548,0.118,0.649,0.232c0.101,0.116,0.151,0.328,0.151,0.638v3.902c0,0.497,0.104,0.933,0.313,1.308
		c0.331,0.577,0.72,0.992,1.167,1.248c0.447,0.256,0.912,0.384,1.395,0.384c0.338,0,0.617-0.108,0.837-0.324
		c0.22-0.216,0.33-0.483,0.33-0.8c0-0.302-0.097-0.558-0.292-0.768c-0.194-0.208-0.443-0.326-0.746-0.351
		c-0.302-0.025-0.51-0.101-0.622-0.227c-0.112-0.126-0.167-0.337-0.167-0.632v-3.524c0-0.62-0.047-1.068-0.141-1.345
		c-0.094-0.278-0.271-0.564-0.53-0.859c0.252-0.296,0.427-0.579,0.525-0.849c0.097-0.271,0.146-0.654,0.146-1.151v-3.524
		c0-0.295,0.064-0.519,0.195-0.67c0.079-0.101,0.273-0.166,0.583-0.194c0.054-0.005,0.342,0.015,0.455,0.015
		c0.756,0,1.423-0.29,2-0.87c0.576-0.58,0.865-1.27,0.865-2.07v-3.902c0-0.303,0.061-0.525,0.183-0.67
		c0.072-0.094,0.276-0.16,0.611-0.2c0.335-0.039,0.591-0.156,0.767-0.351c0.177-0.195,0.265-0.45,0.265-0.768
		C21.103,8.492,21.015,8.232,20.838,8.038z"/>
</g>
</svg>
